<?xml version="1.0" encoding="UTF-8" standalone="no"?>
<svg
   xmlns:lucid="lucid"
   xmlns:dc="http://purl.org/dc/elements/1.1/"
   xmlns:cc="http://creativecommons.org/ns#"
   xmlns:rdf="http://www.w3.org/1999/02/22-rdf-syntax-ns#"
   xmlns:svg="http://www.w3.org/2000/svg"
   xmlns="http://www.w3.org/2000/svg"
   xmlns:xlink="http://www.w3.org/1999/xlink"
   xmlns:sodipodi="http://sodipodi.sourceforge.net/DTD/sodipodi-0.dtd"
   xmlns:inkscape="http://www.inkscape.org/namespaces/inkscape"
   width="345"
   height="390"
   version="1.1"
   id="svg60"
   sodipodi:docname="relacoes_pandas.svg"
   inkscape:version="0.92.4 (5da689c313, 2019-01-14)">
  <metadata
     id="metadata66">
    <rdf:RDF>
      <cc:Work
         rdf:about="">
        <dc:format>image/svg+xml</dc:format>
        <dc:type
           rdf:resource="http://purl.org/dc/dcmitype/StillImage" />
      </cc:Work>
    </rdf:RDF>
  </metadata>
  <defs
     id="defs64" />
  <sodipodi:namedview
     pagecolor="#ffffff"
     bordercolor="#666666"
     borderopacity="1"
     objecttolerance="10"
     gridtolerance="10"
     guidetolerance="10"
     inkscape:pageopacity="0"
     inkscape:pageshadow="2"
     inkscape:window-width="640"
     inkscape:window-height="480"
     id="namedview62"
     showgrid="false"
     inkscape:zoom="0.60512821"
     inkscape:cx="172.5"
     inkscape:cy="128.89831"
     inkscape:window-x="94"
     inkscape:window-y="27"
     inkscape:window-maximized="0"
     inkscape:current-layer="g58" />
  <g
     transform="translate(-363 -575)"
     lucid:page-tab-id="0_0"
     id="g58">
    <path
       d="M420 680h220v220H420z"
       stroke="#000"
       stroke-width="2"
       fill="#fff"
       id="path2" />
    <path
       d="M450 740h160v120H450z"
       stroke="#000"
       stroke-width="2"
       fill="#fff"
       id="path4" />
    <use
       xlink:href="#a"
       transform="matrix(1,0,0,1,455,745) translate(46.72222222222222 60.6875)"
       id="use6" />
    <path
       d="M360 680h240v60H360z"
       stroke="#000"
       stroke-opacity="0"
       stroke-width="2"
       fill="#fff"
       fill-opacity="0"
       id="path8" />
    <use
       xlink:href="#b"
       transform="matrix(1,0,0,1,365,685) translate(65.11111111111111 28.5)"
       id="use10" />
    <defs
       id="defs56">
      <path
         d="M185-189c-5-48-123-54-124 2 14 75 158 14 163 119 3 78-121 87-175 55-17-10-28-26-33-46l33-7c5 56 141 63 141-1 0-78-155-14-162-118-5-82 145-84 179-34 5 7 8 16 11 25"
         id="c" />
      <path
         d="M100-194c63 0 86 42 84 106H49c0 40 14 67 53 68 26 1 43-12 49-29l28 8c-11 28-37 45-77 45C44 4 14-33 15-96c1-61 26-98 85-98zm52 81c6-60-76-77-97-28-3 7-6 17-6 28h103"
         id="d" />
      <path
         d="M114-163C36-179 61-72 57 0H25l-1-190h30c1 12-1 29 2 39 6-27 23-49 58-41v29"
         id="e" />
      <path
         d="M24-231v-30h32v30H24zM24 0v-190h32V0H24"
         id="f" />
      <path
         d="M135-143c-3-34-86-38-87 0 15 53 115 12 119 90S17 21 10-45l28-5c4 36 97 45 98 0-10-56-113-15-118-90-4-57 82-63 122-42 12 7 21 19 24 35"
         id="g" />
      <g
         id="a">
        <use
           transform="matrix(0.05555555555555555,0,0,0.05555555555555555,0,0)"
           xlink:href="#c"
           id="use19" />
        <use
           transform="matrix(0.05555555555555555,0,0,0.05555555555555555,13.333333333333332,0)"
           xlink:href="#d"
           id="use21" />
        <use
           transform="matrix(0.05555555555555555,0,0,0.05555555555555555,24.444444444444443,0)"
           xlink:href="#e"
           id="use23" />
        <use
           transform="matrix(0.05555555555555555,0,0,0.05555555555555555,31.055555555555554,0)"
           xlink:href="#f"
           id="use25" />
        <use
           transform="matrix(0.05555555555555555,0,0,0.05555555555555555,35.44444444444444,0)"
           xlink:href="#d"
           id="use27" />
        <use
           transform="matrix(0.05555555555555555,0,0,0.05555555555555555,46.55555555555556,0)"
           xlink:href="#g"
           id="use29" />
      </g>
      <path
         d="M30-248c118-7 216 8 213 122C240-48 200 0 122 0H30v-248zM63-27c89 8 146-16 146-99s-60-101-146-95v194"
         id="h" />
      <path
         d="M141-36C126-15 110 5 73 4 37 3 15-17 15-53c-1-64 63-63 125-63 3-35-9-54-41-54-24 1-41 7-42 31l-33-3c5-37 33-52 76-52 45 0 72 20 72 64v82c-1 20 7 32 28 27v20c-31 9-61-2-59-35zM48-53c0 20 12 33 32 33 41-3 63-29 60-74-43 2-92-5-92 41"
         id="i" />
      <path
         d="M59-47c-2 24 18 29 38 22v24C64 9 27 4 27-40v-127H5v-23h24l9-43h21v43h35v23H59v120"
         id="j" />
      <path
         d="M63-220v92h138v28H63V0H30v-248h175v28H63"
         id="k" />
      <path
         d="M210-169c-67 3-38 105-44 169h-31v-121c0-29-5-50-35-48C34-165 62-65 56 0H25l-1-190h30c1 10-1 24 2 32 10-44 99-50 107 0 11-21 27-35 58-36 85-2 47 119 55 194h-31v-121c0-29-5-49-35-48"
         id="l" />
      <g
         id="b">
        <use
           transform="matrix(0.05555555555555555,0,0,0.05555555555555555,0,0)"
           xlink:href="#h"
           id="use37" />
        <use
           transform="matrix(0.05555555555555555,0,0,0.05555555555555555,14.388888888888888,0)"
           xlink:href="#i"
           id="use39" />
        <use
           transform="matrix(0.05555555555555555,0,0,0.05555555555555555,25.5,0)"
           xlink:href="#j"
           id="use41" />
        <use
           transform="matrix(0.05555555555555555,0,0,0.05555555555555555,31.05555555555556,0)"
           xlink:href="#i"
           id="use43" />
        <use
           transform="matrix(0.05555555555555555,0,0,0.05555555555555555,42.16666666666667,0)"
           xlink:href="#k"
           id="use45" />
        <use
           transform="matrix(0.05555555555555555,0,0,0.05555555555555555,54.333333333333336,0)"
           xlink:href="#e"
           id="use47" />
        <use
           transform="matrix(0.05555555555555555,0,0,0.05555555555555555,60.94444444444444,0)"
           xlink:href="#i"
           id="use49" />
        <use
           transform="matrix(0.05555555555555555,0,0,0.05555555555555555,72.05555555555556,0)"
           xlink:href="#l"
           id="use51" />
        <use
           transform="matrix(0.05555555555555555,0,0,0.05555555555555555,88.66666666666667,0)"
           xlink:href="#d"
           id="use53" />
      </g>
    </defs>
  </g>
</svg>
