<svg xmlns="http://www.w3.org/2000/svg" xmlns:xlink="http://www.w3.org/1999/xlink" xmlns:lucid="lucid" width="1085.56" height="788.8"><g transform="translate(-360 -12)" lucid:page-tab-id="0_0"><path d="M900 239.2h120v80H900z" stroke="#000" stroke-width="2" fill="#d1bcd2"/><use xlink:href="#a" transform="matrix(1,0,0,1,905,244.20000000000005) translate(46.20679012345679 39.888888888888886)"/><path d="M900 339.2h120v80H900z" stroke="#000" stroke-width="2" fill="#d1bcd2"/><use xlink:href="#b" transform="matrix(1,0,0,1,905,344.20000000000005) translate(46.20679012345679 39.888888888888886)"/><path d="M900 439.2h120v80H900z" stroke="#000" stroke-width="2" fill="#d1bcd2"/><use xlink:href="#c" transform="matrix(1,0,0,1,905,444.2) translate(46.20679012345679 39.888888888888886)"/><path d="M900 539.2h120v80H900z" stroke="#000" stroke-width="2" fill="#d1bcd2"/><use xlink:href="#d" transform="matrix(1,0,0,1,905,544.2) translate(46.20679012345679 39.888888888888886)"/><path d="M900 700.8h120v80H900z" stroke="#000" stroke-width="2" fill="#d1bcd2"/><use xlink:href="#e" transform="matrix(1,0,0,1,905,705.8) translate(35.98765432098765 39.888888888888886)"/><path d="M990 627.08v73.72h-60v-73.72z" stroke="#000" stroke-opacity="0" stroke-width="2" fill="#fff" fill-opacity="0"/><use xlink:href="#f" transform="matrix(6.123233995736766e-17,1,-1,6.123233995736766e-17,984.9999999999998,632.0833010522381) translate(10.39506172839506 31.22222222222222)"/><use xlink:href="#g" transform="matrix(6.123233995736766e-17,1,-1,6.123233995736766e-17,984.9999999999998,632.0833010522381) translate(27.679012345679013 31.22222222222222)"/><use xlink:href="#h" transform="matrix(6.123233995736766e-17,1,-1,6.123233995736766e-17,984.9999999999998,632.0833010522381) translate(44.96296296296296 31.22222222222222)"/><path d="M1040 239.2h120v80h-120z" stroke="#000" stroke-width="2" fill="#b2d6ef"/><use xlink:href="#i" transform="matrix(1,0,0,1,1045,244.20000000000005) translate(48.20987654320987 39.888888888888886)"/><path d="M1040 339.2h120v80h-120z" stroke="#000" stroke-width="2" fill="#b2d6ef"/><use xlink:href="#i" transform="matrix(1,0,0,1,1045,344.20000000000005) translate(48.20987654320987 39.888888888888886)"/><path d="M1040 439.2h120v80h-120z" stroke="#000" stroke-width="2" fill="#b2d6ef"/><use xlink:href="#i" transform="matrix(1,0,0,1,1045,444.2) translate(48.20987654320987 39.888888888888886)"/><path d="M1040 539.2h120v80h-120z" stroke="#000" stroke-width="2" fill="#b2d6ef"/><use xlink:href="#j" transform="matrix(1,0,0,1,1045,544.2) translate(48.20987654320987 39.888888888888886)"/><path d="M1040 700.8h120v80h-120z" stroke="#000" stroke-width="2" fill="#b2d6ef"/><use xlink:href="#k" transform="matrix(1,0,0,1,1045,705.8) translate(46.20679012345679 39.888888888888886)"/><path d="M1130 627.08v73.72h-60v-73.72z" stroke="#000" stroke-opacity="0" stroke-width="2" fill="#fff" fill-opacity="0"/><use xlink:href="#f" transform="matrix(6.123233995736766e-17,1,-1,6.123233995736766e-17,1125,632.0833010522381) translate(10.39506172839506 31.22222222222222)"/><use xlink:href="#g" transform="matrix(6.123233995736766e-17,1,-1,6.123233995736766e-17,1125,632.0833010522381) translate(27.679012345679013 31.22222222222222)"/><use xlink:href="#h" transform="matrix(6.123233995736766e-17,1,-1,6.123233995736766e-17,1125,632.0833010522381) translate(44.96296296296296 31.22222222222222)"/><path d="M908.43 179.2h103.14v60H908.43z" stroke="#000" stroke-opacity="0" stroke-width="2" fill="#fff" fill-opacity="0"/><use xlink:href="#l" transform="matrix(1,0,0,1,913.4291747369405,184.20000000000005) translate(8.55555555555555 30.333333333333336)"/><path d="M380 220h120v80H380z" stroke="#000" stroke-width="2" fill="#d1bcd2"/><use xlink:href="#a" transform="matrix(1,0,0,1,385,225) translate(46.20679012345679 39.888888888888886)"/><path d="M380 320h120v80H380z" stroke="#000" stroke-width="2" fill="#d1bcd2"/><use xlink:href="#b" transform="matrix(1,0,0,1,385,325) translate(46.20679012345679 39.888888888888886)"/><path d="M380 420h120v80H380z" stroke="#000" stroke-width="2" fill="#d1bcd2"/><use xlink:href="#c" transform="matrix(1,0,0,1,385,425) translate(46.20679012345679 39.888888888888886)"/><path d="M380 520h120v80H380z" stroke="#000" stroke-width="2" fill="#d1bcd2"/><use xlink:href="#d" transform="matrix(1,0,0,1,385,525) translate(46.20679012345679 39.888888888888886)"/><path d="M380 681.6h120v80H380z" stroke="#000" stroke-width="2" fill="#d1bcd2"/><use xlink:href="#e" transform="matrix(1,0,0,1,385,686.5999999999999) translate(35.98765432098765 39.888888888888886)"/><path d="M470 607.88v73.72h-60v-73.72z" stroke="#000" stroke-opacity="0" stroke-width="2" fill="#fff" fill-opacity="0"/><use xlink:href="#f" transform="matrix(6.123233995736766e-17,1,-1,6.123233995736766e-17,465,612.883301052238) translate(10.39506172839506 31.22222222222222)"/><use xlink:href="#g" transform="matrix(6.123233995736766e-17,1,-1,6.123233995736766e-17,465,612.883301052238) translate(27.679012345679013 31.22222222222222)"/><use xlink:href="#h" transform="matrix(6.123233995736766e-17,1,-1,6.123233995736766e-17,465,612.883301052238) translate(44.96296296296296 31.22222222222222)"/><path d="M540 220h120v80H540z" stroke="#000" stroke-width="2" fill="#b2d6ef"/><use xlink:href="#i" transform="matrix(1,0,0,1,545,225) translate(48.20987654320987 39.888888888888886)"/><path d="M540 320h120v80H540z" stroke="#000" stroke-width="2" fill="#b2d6ef"/><use xlink:href="#i" transform="matrix(1,0,0,1,545,325) translate(48.20987654320987 39.888888888888886)"/><path d="M540 420h120v80H540z" stroke="#000" stroke-width="2" fill="#b2d6ef"/><use xlink:href="#i" transform="matrix(1,0,0,1,545,425) translate(48.20987654320987 39.888888888888886)"/><path d="M540 520h120v80H540z" stroke="#000" stroke-width="2" fill="#b2d6ef"/><use xlink:href="#j" transform="matrix(1,0,0,1,545,525) translate(48.20987654320987 39.888888888888886)"/><path d="M540 681.6h120v80H540z" stroke="#000" stroke-width="2" fill="#b2d6ef"/><use xlink:href="#k" transform="matrix(1,0,0,1,545,686.5999999999999) translate(46.20679012345679 39.888888888888886)"/><path d="M630 607.88v73.72h-60v-73.72z" stroke="#000" stroke-opacity="0" stroke-width="2" fill="#fff" fill-opacity="0"/><use xlink:href="#f" transform="matrix(6.123233995736766e-17,1,-1,6.123233995736766e-17,625,612.883301052238) translate(10.39506172839506 31.22222222222222)"/><use xlink:href="#g" transform="matrix(6.123233995736766e-17,1,-1,6.123233995736766e-17,625,612.883301052238) translate(27.679012345679013 31.22222222222222)"/><use xlink:href="#h" transform="matrix(6.123233995736766e-17,1,-1,6.123233995736766e-17,625,612.883301052238) translate(44.96296296296296 31.22222222222222)"/><path d="M388.43 160h103.14v60H388.43z" stroke="#000" stroke-opacity="0" stroke-width="2" fill="#fff" fill-opacity="0"/><use xlink:href="#l" transform="matrix(1,0,0,1,393.42917473694047,165) translate(8.55555555555555 30.333333333333336)"/><path d="M551 160h103.14v60H551z" stroke="#000" stroke-opacity="0" stroke-width="2" fill="#fff" fill-opacity="0"/><use xlink:href="#m" transform="matrix(1,0,0,1,556,165) translate(7.851851851851848 30.333333333333336)"/><path d="M1040 139.2h120v80h-120z" stroke="#000" stroke-width="2" fill="#ff8f80"/><use xlink:href="#n" transform="matrix(1,0,0,1,1045,144.20000000000005) translate(26.58333333333333 39.888888888888886)"/><path d="M1180 140h120v80h-120z" stroke="#000" stroke-width="2" fill="#ff8f80"/><use xlink:href="#o" transform="matrix(1,0,0,1,1185,145) translate(26.58333333333333 39.888888888888886)"/><path d="M1180 239.2h120v80h-120z" stroke="#000" stroke-width="2" fill="#b2d6ef"/><use xlink:href="#p" transform="matrix(1,0,0,1,1185,244.20000000000005) translate(41.41975308641975 39.888888888888886)"/><path d="M1180 339.2h120v80h-120z" stroke="#000" stroke-width="2" fill="#b2d6ef"/><use xlink:href="#q" transform="matrix(1,0,0,1,1185,344.20000000000005) translate(41.41975308641975 39.888888888888886)"/><path d="M1180 439.2h120v80h-120z" stroke="#000" stroke-width="2" fill="#b2d6ef"/><use xlink:href="#r" transform="matrix(1,0,0,1,1185,444.2) translate(41.41975308641975 39.888888888888886)"/><path d="M1180 539.2h120v80h-120z" stroke="#000" stroke-width="2" fill="#b2d6ef"/><use xlink:href="#s" transform="matrix(1,0,0,1,1185,544.2) translate(41.41975308641975 39.888888888888886)"/><path d="M1180 700.8h120v80h-120z" stroke="#000" stroke-width="2" fill="#b2d6ef"/><use xlink:href="#k" transform="matrix(1,0,0,1,1185,705.8) translate(46.20679012345679 39.888888888888886)"/><path d="M1270 627.08v73.72h-60v-73.72z" stroke="#000" stroke-opacity="0" stroke-width="2" fill="#fff" fill-opacity="0"/><g><use xlink:href="#f" transform="matrix(6.123233995736766e-17,1,-1,6.123233995736766e-17,1265,632.0833010522381) translate(10.39506172839506 31.22222222222222)"/><use xlink:href="#g" transform="matrix(6.123233995736766e-17,1,-1,6.123233995736766e-17,1265,632.0833010522381) translate(27.679012345679013 31.22222222222222)"/><use xlink:href="#h" transform="matrix(6.123233995736766e-17,1,-1,6.123233995736766e-17,1265,632.0833010522381) translate(44.96296296296296 31.22222222222222)"/></g><path d="M1320 149.2h103.14v60H1320z" stroke="#000" stroke-opacity="0" stroke-width="2" fill="#fff" fill-opacity="0"/><g><use xlink:href="#t" transform="matrix(1,0,0,1,1325,154.20000000000005) translate(-5.444444444444457 30.333333333333336)"/></g><path d="M396.86 32h240v60h-240z" stroke="#000" stroke-opacity="0" stroke-width="2" fill="#fff" fill-opacity="0"/><g><use xlink:href="#u" transform="matrix(1,0,0,1,401.85834947388093,37) translate(55 33)"/></g><path d="M1011.57 32h240v60h-240z" stroke="#000" stroke-opacity="0" stroke-width="2" fill="#fff" fill-opacity="0"/><g><use xlink:href="#v" transform="matrix(1,0,0,1,1016.5708252630595,37) translate(11.833333333333314 33)"/></g><defs><path d="M199 0l-22-63H83L61 0H9l90-248h61L250 0h-51zm-33-102l-36-108c-10 38-24 72-36 108h72" id="w"/><use transform="matrix(0.06790123456790124,0,0,0.06790123456790124,0,0)" xlink:href="#w" id="a"/><path d="M182-130c37 4 62 22 62 59C244 23 116-4 24 0v-248c84 5 203-23 205 63 0 31-19 50-47 55zM76-148c40-3 101 13 101-30 0-44-60-28-101-31v61zm0 110c48-3 116 14 116-37 0-48-69-32-116-35v72" id="x"/><use transform="matrix(0.06790123456790124,0,0,0.06790123456790124,0,0)" xlink:href="#x" id="b"/><path d="M67-125c0 53 21 87 73 88 37 1 54-22 65-47l45 17C233-25 199 4 140 4 58 4 20-42 15-125 8-235 124-281 211-232c18 10 29 29 36 50l-46 12c-8-25-30-41-62-41-52 0-71 34-72 86" id="y"/><use transform="matrix(0.06790123456790124,0,0,0.06790123456790124,0,0)" xlink:href="#y" id="c"/><path d="M24-248c120-7 223 5 221 122C244-46 201 0 124 0H24v-248zM76-40c74 7 117-18 117-86 0-67-45-88-117-82v168" id="z"/><use transform="matrix(0.06790123456790124,0,0,0.06790123456790124,0,0)" xlink:href="#z" id="d"/><path d="M67-125c0 54 23 88 75 88 28 0 53-7 68-21v-34h-60v-39h108v91C232-14 192 4 140 4 58 4 20-42 15-125 8-236 126-280 215-234c19 10 29 26 37 47l-47 15c-11-23-29-39-63-39-53 1-75 33-75 86" id="A"/><g id="e"><use transform="matrix(0.06790123456790124,0,0,0.06790123456790124,0,0)" xlink:href="#A"/><use transform="matrix(0.06790123456790124,0,0,0.06790123456790124,19.01234567901235,0)" xlink:href="#A"/></g><path d="M24 0v-54h51V0H24" id="B"/><use transform="matrix(0.08641975308641976,0,0,0.08641975308641976,0,0)" xlink:href="#B" id="f"/><use transform="matrix(0.08641975308641976,0,0,0.08641975308641976,0,0)" xlink:href="#B" id="g"/><use transform="matrix(0.08641975308641976,0,0,0.08641975308641976,0,0)" xlink:href="#B" id="h"/><path d="M52 0c1-96 47-148 87-207H15v-41h169v40c-36 62-79 113-81 208H52" id="C"/><use transform="matrix(0.06790123456790124,0,0,0.06790123456790124,0,0)" xlink:href="#C" id="i"/><path d="M138-131c27 9 52 24 51 61 0 53-36 74-89 74S11-19 11-69c0-35 22-54 51-61-78-25-46-121 38-121 51 0 83 19 83 66 0 30-18 49-45 54zm-38-16c24 0 32-13 32-36 1-23-11-34-32-34-22 0-33 12-32 34 0 22 9 36 32 36zm1 116c27 0 37-17 37-43 0-25-13-39-39-39-24 0-37 15-37 40 0 27 11 42 39 42" id="D"/><use transform="matrix(0.06790123456790124,0,0,0.06790123456790124,0,0)" xlink:href="#D" id="j"/><path d="M175 0L67-191c6 58 2 128 3 191H24v-248h59L193-55c-6-58-2-129-3-193h46V0h-61" id="E"/><use transform="matrix(0.06790123456790124,0,0,0.06790123456790124,0,0)" xlink:href="#E" id="k"/><path d="M18-269v-5l45-45h45v8l-60 42H18zM24 0v-248h52V0H24" id="F"/><path d="M135-194c87-1 58 113 63 194h-50c-7-57 23-157-34-157-59 0-34 97-39 157H25l-1-190h47c2 12-1 28 3 38 12-26 28-41 61-42" id="G"/><path d="M88-194c31-1 46 15 58 34l-1-101h50l1 261h-48c-2-10 0-23-3-31C134-8 116 4 84 4 32 4 16-41 15-95c0-56 19-97 73-99zm17 164c33 0 40-30 41-66 1-37-9-64-41-64s-38 30-39 65c0 43 13 65 39 65" id="H"/><path d="M25-224v-37h50v37H25zM25 0v-190h50V0H25" id="I"/><path d="M190-63c-7 42-38 67-86 67-59 0-84-38-90-98-12-110 154-137 174-36l-49 2c-2-19-15-32-35-32-30 0-35 28-38 64-6 74 65 87 74 30" id="J"/><path d="M185-48c-13 30-37 53-82 52C43 2 14-33 14-96s30-98 90-98c62 0 83 45 84 108H66c0 31 8 55 39 56 18 0 30-7 34-22zm-45-69c5-46-57-63-70-21-2 6-4 13-4 21h74" id="K"/><g id="l"><use transform="matrix(0.07407407407407408,0,0,0.07407407407407408,0,0)" xlink:href="#F"/><use transform="matrix(0.07407407407407408,0,0,0.07407407407407408,7.407407407407408,0)" xlink:href="#G"/><use transform="matrix(0.07407407407407408,0,0,0.07407407407407408,23.629629629629633,0)" xlink:href="#H"/><use transform="matrix(0.07407407407407408,0,0,0.07407407407407408,39.85185185185187,0)" xlink:href="#I"/><use transform="matrix(0.07407407407407408,0,0,0.07407407407407408,47.25925925925927,0)" xlink:href="#J"/><use transform="matrix(0.07407407407407408,0,0,0.07407407407407408,62.07407407407408,0)" xlink:href="#K"/></g><path d="M133-34C117-15 103 5 69 4 32 3 11-16 11-54c-1-60 55-63 116-61 1-26-3-47-28-47-18 1-26 9-28 27l-52-2c7-38 36-58 82-57s74 22 75 68l1 82c-1 14 12 18 25 15v27c-30 8-71 5-69-32zm-48 3c29 0 43-24 42-57-32 0-66-3-65 30 0 17 8 27 23 27" id="L"/><path d="M110-194c64 0 96 36 96 99 0 64-35 99-97 99-61 0-95-36-95-99 0-62 34-99 96-99zm-1 164c35 0 45-28 45-65 0-40-10-65-43-65-34 0-45 26-45 65 0 36 10 65 43 65" id="M"/><path d="M137-138c1-29-70-34-71-4 15 46 118 7 119 86 1 83-164 76-172 9l43-7c4 19 20 25 44 25 33 8 57-30 24-41C81-84 22-81 20-136c-2-80 154-74 161-7" id="N"/><g id="m"><use transform="matrix(0.07407407407407408,0,0,0.07407407407407408,0,0)" xlink:href="#H"/><use transform="matrix(0.07407407407407408,0,0,0.07407407407407408,16.222222222222225,0)" xlink:href="#L"/><use transform="matrix(0.07407407407407408,0,0,0.07407407407407408,31.03703703703704,0)" xlink:href="#H"/><use transform="matrix(0.07407407407407408,0,0,0.07407407407407408,47.25925925925927,0)" xlink:href="#M"/><use transform="matrix(0.07407407407407408,0,0,0.07407407407407408,63.481481481481495,0)" xlink:href="#N"/></g><path d="M25 0v-261h50V0H25" id="O"/><g id="n"><use transform="matrix(0.06790123456790124,0,0,0.06790123456790124,0,0)" xlink:href="#y"/><use transform="matrix(0.06790123456790124,0,0,0.06790123456790124,17.58641975308642,0)" xlink:href="#M"/><use transform="matrix(0.06790123456790124,0,0,0.06790123456790124,32.45679012345679,0)" xlink:href="#O"/><use transform="matrix(0.06790123456790124,0,0,0.06790123456790124,39.24691358024692,0)" xlink:href="#w"/></g><g id="o"><use transform="matrix(0.06790123456790124,0,0,0.06790123456790124,0,0)" xlink:href="#y"/><use transform="matrix(0.06790123456790124,0,0,0.06790123456790124,17.58641975308642,0)" xlink:href="#M"/><use transform="matrix(0.06790123456790124,0,0,0.06790123456790124,32.45679012345679,0)" xlink:href="#O"/><use transform="matrix(0.06790123456790124,0,0,0.06790123456790124,39.24691358024692,0)" xlink:href="#x"/></g><path d="M23 0v-37h61v-169l-59 37v-38l62-41h46v211h57V0H23" id="P"/><path d="M182-182c0 78-84 86-111 141h115V0H12c-6-101 99-100 120-180 1-22-12-31-33-32-23 0-32 14-35 34l-49-3c5-45 32-70 84-70 51 0 83 22 83 69" id="Q"/><g id="p"><use transform="matrix(0.06790123456790124,0,0,0.06790123456790124,0,0)" xlink:href="#P"/><use transform="matrix(0.06790123456790124,0,0,0.06790123456790124,13.580246913580249,0)" xlink:href="#Q"/></g><path d="M139-81c0-46-55-55-73-27H18l9-140h149v37H72l-4 63c44-38 133-4 122 66C201 21 21 35 11-62l49-4c5 18 15 30 39 30 26 0 40-18 40-45" id="R"/><g id="q"><use transform="matrix(0.06790123456790124,0,0,0.06790123456790124,0,0)" xlink:href="#P"/><use transform="matrix(0.06790123456790124,0,0,0.06790123456790124,13.580246913580249,0)" xlink:href="#R"/></g><path d="M115-159c48 0 72 30 72 78 0 54-30 85-83 85-64 0-91-50-91-122 0-98 58-163 141-120 15 8 21 24 27 44l-47 6c-5-31-48-31-61-4-7 14-11 33-11 60 9-17 28-27 53-27zM102-35c24 0 36-20 36-45s-11-43-37-43c-23 0-36 14-36 38 0 27 11 50 37 50" id="S"/><g id="r"><use transform="matrix(0.06790123456790124,0,0,0.06790123456790124,0,0)" xlink:href="#P"/><use transform="matrix(0.06790123456790124,0,0,0.06790123456790124,13.580246913580249,0)" xlink:href="#S"/></g><path d="M99-251c69 0 84 53 88 123 5 99-61 162-144 118-15-8-21-25-26-45l46-6c4 31 50 33 63 7 7-15 12-36 12-60-9 18-29 28-54 28-48 0-72-32-72-82 0-55 31-83 87-83zm-1 128c24 0 37-16 37-39 0-27-10-51-37-51-25 0-35 19-35 45 0 25 10 45 35 45" id="T"/><g id="s"><use transform="matrix(0.06790123456790124,0,0,0.06790123456790124,0,0)" xlink:href="#T"/><use transform="matrix(0.06790123456790124,0,0,0.06790123456790124,13.580246913580249,0)" xlink:href="#T"/></g><path d="M85 4C-2 5 27-109 22-190h50c7 57-23 150 33 157 60-5 35-97 40-157h50l1 190h-47c-2-12 1-28-3-38-12 25-28 42-61 42" id="U"/><g id="t"><use transform="matrix(0.07407407407407408,0,0,0.07407407407407408,0,0)" xlink:href="#y"/><use transform="matrix(0.07407407407407408,0,0,0.07407407407407408,19.185185185185187,0)" xlink:href="#M"/><use transform="matrix(0.07407407407407408,0,0,0.07407407407407408,35.40740740740741,0)" xlink:href="#O"/><use transform="matrix(0.07407407407407408,0,0,0.07407407407407408,42.814814814814824,0)" xlink:href="#U"/><use transform="matrix(0.07407407407407408,0,0,0.07407407407407408,59.03703703703705,0)" xlink:href="#G"/><use transform="matrix(0.07407407407407408,0,0,0.07407407407407408,75.25925925925928,0)" xlink:href="#L"/><use transform="matrix(0.07407407407407408,0,0,0.07407407407407408,90.0740740740741,0)" xlink:href="#N"/></g><path d="M169-182c-1-43-94-46-97-3 18 66 151 10 154 114 3 95-165 93-204 36-6-8-10-19-12-30l50-8c3 46 112 56 116 5-17-69-150-10-154-114-4-87 153-88 188-35 5 8 8 18 10 28" id="V"/><path d="M135-150c-39-12-60 13-60 57V0H25l-1-190h47c2 13-1 29 3 40 6-28 27-53 61-41v41" id="W"/><g id="u"><use transform="matrix(0.1111111111111111,0,0,0.1111111111111111,0,0)" xlink:href="#V"/><use transform="matrix(0.1111111111111111,0,0,0.1111111111111111,26.666666666666664,0)" xlink:href="#K"/><use transform="matrix(0.1111111111111111,0,0,0.1111111111111111,48.888888888888886,0)" xlink:href="#W"/><use transform="matrix(0.1111111111111111,0,0,0.1111111111111111,64.44444444444444,0)" xlink:href="#I"/><use transform="matrix(0.1111111111111111,0,0,0.1111111111111111,75.55555555555556,0)" xlink:href="#K"/><use transform="matrix(0.1111111111111111,0,0,0.1111111111111111,97.77777777777777,0)" xlink:href="#N"/></g><path d="M115-3C79 11 28 4 28-45v-112H4v-33h27l15-45h31v45h36v33H77v99c-1 23 16 31 38 25v30" id="X"/><path d="M76-208v77h127v40H76V0H24v-248h183v40H76" id="Y"/><path d="M220-157c-53 9-28 100-34 157h-49v-107c1-27-5-49-29-50C55-147 81-57 75 0H25l-1-190h47c2 12-1 28 3 38 10-53 101-56 108 0 13-22 24-43 59-42 82 1 51 116 57 194h-49v-107c-1-25-5-48-29-50" id="Z"/><g id="v"><use transform="matrix(0.1111111111111111,0,0,0.1111111111111111,0,0)" xlink:href="#z"/><use transform="matrix(0.1111111111111111,0,0,0.1111111111111111,28.777777777777775,0)" xlink:href="#L"/><use transform="matrix(0.1111111111111111,0,0,0.1111111111111111,51,0)" xlink:href="#X"/><use transform="matrix(0.1111111111111111,0,0,0.1111111111111111,64.22222222222223,0)" xlink:href="#L"/><use transform="matrix(0.1111111111111111,0,0,0.1111111111111111,86.44444444444446,0)" xlink:href="#Y"/><use transform="matrix(0.1111111111111111,0,0,0.1111111111111111,110.77777777777779,0)" xlink:href="#W"/><use transform="matrix(0.1111111111111111,0,0,0.1111111111111111,126.33333333333336,0)" xlink:href="#L"/><use transform="matrix(0.1111111111111111,0,0,0.1111111111111111,148.55555555555557,0)" xlink:href="#Z"/><use transform="matrix(0.1111111111111111,0,0,0.1111111111111111,184.11111111111114,0)" xlink:href="#K"/></g></defs></g></svg>