<svg xmlns="http://www.w3.org/2000/svg" xmlns:xlink="http://www.w3.org/1999/xlink" xmlns:lucid="lucid" width="700" height="440"><g transform="translate(-540 -220)" lucid:page-tab-id="0_0"><path d="M560 320h160v120H560z" stroke="#000" stroke-width="2" fill="#d1bcd2"/><use xlink:href="#a" transform="matrix(1,0,0,1,565,325) translate(30.099999999999994 59.0875)"/><path d="M1060 320h160v120h-160z" stroke="#000" stroke-width="2" fill="#d1bcd2"/><use xlink:href="#b" transform="matrix(1,0,0,1,1065,325) translate(49.55 59.0875)"/><path d="M720 520h160v120H720z" stroke="#000" stroke-width="2" fill="#99d2f2"/><use xlink:href="#c" transform="matrix(1,0,0,1,725,525) translate(13.099999999999994 59.0875)"/><path d="M940 520h160v120H940z" stroke="#000" stroke-width="2" fill="#99d2f2"/><use xlink:href="#d" transform="matrix(1,0,0,1,945,525) translate(32.55 59.0875)"/><path d="M1071.1 518.25l56.6-63.44" stroke="#000" stroke-width="2" fill="none"/><path d="M1071.88 518.9l-.1.1h-2.67l1.28-1.43z"/><path d="M1137.85 443.42l-6.04 13.73-6.9-6.17z" stroke="#000" stroke-width="2" fill="#fff"/><path d="M754.74 518.44l-99.4-67.1" stroke="#000" stroke-width="2" fill="none"/><path d="M757.35 519h-3.02l.94-1.4z"/><path d="M642.68 442.8l14.42 4.15-5.2 7.68z" stroke="#000" stroke-width="2" fill="#fff"/><path d="M810 240h160v120H810z" stroke="#000" stroke-width="2" fill="#c7e8ac"/><use xlink:href="#e" transform="matrix(1,0,0,1,815,245) translate(7 59.0875)"/><path d="M961.85 518.05L916.47 378.6" stroke="#000" stroke-width="2" fill="none"/><path d="M963.2 519h-2.1l-.2-.67 1.9-.6z"/><path d="M911.74 364.08l8.82 12.13-8.8 2.88z" stroke="#000" stroke-width="2" fill="#fff"/><path d="M854.46 518l19.9-138.7" stroke="#000" stroke-width="2" fill="none"/><path d="M855.45 518.13l-.13.87h-2.02l.17-1.16z"/><path d="M876.52 364.2l2.56 14.78-9.18-1.3z" stroke="#000" stroke-width="2" fill="#fff"/><defs><path d="M30-248c118-7 216 8 213 122C240-48 200 0 122 0H30v-248zM63-27c89 8 146-16 146-99s-60-101-146-95v194" id="f"/><path d="M141-36C126-15 110 5 73 4 37 3 15-17 15-53c-1-64 63-63 125-63 3-35-9-54-41-54-24 1-41 7-42 31l-33-3c5-37 33-52 76-52 45 0 72 20 72 64v82c-1 20 7 32 28 27v20c-31 9-61-2-59-35zM48-53c0 20 12 33 32 33 41-3 63-29 60-74-43 2-92-5-92 41" id="g"/><path d="M59-47c-2 24 18 29 38 22v24C64 9 27 4 27-40v-127H5v-23h24l9-43h21v43h35v23H59v120" id="h"/><path d="M63-220v92h138v28H63V0H30v-248h175v28H63" id="i"/><path d="M114-163C36-179 61-72 57 0H25l-1-190h30c1 12-1 29 2 39 6-27 23-49 58-41v29" id="j"/><path d="M210-169c-67 3-38 105-44 169h-31v-121c0-29-5-50-35-48C34-165 62-65 56 0H25l-1-190h30c1 10-1 24 2 32 10-44 99-50 107 0 11-21 27-35 58-36 85-2 47 119 55 194h-31v-121c0-29-5-49-35-48" id="k"/><path d="M100-194c63 0 86 42 84 106H49c0 40 14 67 53 68 26 1 43-12 49-29l28 8c-11 28-37 45-77 45C44 4 14-33 15-96c1-61 26-98 85-98zm52 81c6-60-76-77-97-28-3 7-6 17-6 28h103" id="l"/><g id="a"><use transform="matrix(0.05,0,0,0.05,0,0)" xlink:href="#f"/><use transform="matrix(0.05,0,0,0.05,12.950000000000001,0)" xlink:href="#g"/><use transform="matrix(0.05,0,0,0.05,22.950000000000003,0)" xlink:href="#h"/><use transform="matrix(0.05,0,0,0.05,27.950000000000003,0)" xlink:href="#g"/><use transform="matrix(0.05,0,0,0.05,37.95,0)" xlink:href="#i"/><use transform="matrix(0.05,0,0,0.05,48.900000000000006,0)" xlink:href="#j"/><use transform="matrix(0.05,0,0,0.05,54.85,0)" xlink:href="#g"/><use transform="matrix(0.05,0,0,0.05,64.85000000000001,0)" xlink:href="#k"/><use transform="matrix(0.05,0,0,0.05,79.80000000000001,0)" xlink:href="#l"/></g><path d="M185-189c-5-48-123-54-124 2 14 75 158 14 163 119 3 78-121 87-175 55-17-10-28-26-33-46l33-7c5 56 141 63 141-1 0-78-155-14-162-118-5-82 145-84 179-34 5 7 8 16 11 25" id="m"/><path d="M24-231v-30h32v30H24zM24 0v-190h32V0H24" id="n"/><path d="M135-143c-3-34-86-38-87 0 15 53 115 12 119 90S17 21 10-45l28-5c4 36 97 45 98 0-10-56-113-15-118-90-4-57 82-63 122-42 12 7 21 19 24 35" id="o"/><g id="b"><use transform="matrix(0.05,0,0,0.05,0,0)" xlink:href="#m"/><use transform="matrix(0.05,0,0,0.05,12,0)" xlink:href="#l"/><use transform="matrix(0.05,0,0,0.05,22,0)" xlink:href="#j"/><use transform="matrix(0.05,0,0,0.05,27.950000000000003,0)" xlink:href="#n"/><use transform="matrix(0.05,0,0,0.05,31.899999999999995,0)" xlink:href="#l"/><use transform="matrix(0.05,0,0,0.05,41.9,0)" xlink:href="#o"/></g><path d="M143 4C61 4 22-44 18-125c-5-107 100-154 193-111 17 8 29 25 37 43l-32 9c-13-25-37-40-76-40-61 0-88 39-88 99 0 61 29 100 91 101 35 0 62-11 79-27v-45h-74v-28h105v86C228-13 192 4 143 4" id="p"/><path d="M100-194c62-1 85 37 85 99 1 63-27 99-86 99S16-35 15-95c0-66 28-99 85-99zM99-20c44 1 53-31 53-75 0-43-8-75-51-75s-53 32-53 75 10 74 51 75" id="q"/><g id="c"><use transform="matrix(0.05,0,0,0.05,0,0)" xlink:href="#p"/><use transform="matrix(0.05,0,0,0.05,14,0)" xlink:href="#l"/><use transform="matrix(0.05,0,0,0.05,24,0)" xlink:href="#q"/><use transform="matrix(0.05,0,0,0.05,34,0)" xlink:href="#f"/><use transform="matrix(0.05,0,0,0.05,46.95,0)" xlink:href="#g"/><use transform="matrix(0.05,0,0,0.05,56.95,0)" xlink:href="#h"/><use transform="matrix(0.05,0,0,0.05,61.95,0)" xlink:href="#g"/><use transform="matrix(0.05,0,0,0.05,71.95,0)" xlink:href="#i"/><use transform="matrix(0.05,0,0,0.05,82.9,0)" xlink:href="#j"/><use transform="matrix(0.05,0,0,0.05,88.85000000000001,0)" xlink:href="#g"/><use transform="matrix(0.05,0,0,0.05,98.85000000000001,0)" xlink:href="#k"/><use transform="matrix(0.05,0,0,0.05,113.80000000000001,0)" xlink:href="#l"/></g><g id="d"><use transform="matrix(0.05,0,0,0.05,0,0)" xlink:href="#p"/><use transform="matrix(0.05,0,0,0.05,14,0)" xlink:href="#l"/><use transform="matrix(0.05,0,0,0.05,24,0)" xlink:href="#q"/><use transform="matrix(0.05,0,0,0.05,34,0)" xlink:href="#m"/><use transform="matrix(0.05,0,0,0.05,46,0)" xlink:href="#l"/><use transform="matrix(0.05,0,0,0.05,56,0)" xlink:href="#j"/><use transform="matrix(0.05,0,0,0.05,61.95,0)" xlink:href="#n"/><use transform="matrix(0.05,0,0,0.05,65.9,0)" xlink:href="#l"/><use transform="matrix(0.05,0,0,0.05,75.9,0)" xlink:href="#o"/></g><path d="M30-248c87 1 191-15 191 75 0 78-77 80-158 76V0H30v-248zm33 125c57 0 124 11 124-50 0-59-68-47-124-48v98" id="r"/><path d="M117-194c89-4 53 116 60 194h-32v-121c0-31-8-49-39-48C34-167 62-67 57 0H25l-1-190h30c1 10-1 24 2 32 11-22 29-35 61-36" id="s"/><path d="M85-194c31 0 48 13 60 33l-1-100h32l1 261h-30c-2-10 0-23-3-31C134-8 116 4 85 4 32 4 16-35 15-94c0-66 23-100 70-100zm9 24c-40 0-46 34-46 75 0 40 6 74 45 74 42 0 51-32 51-76 0-42-9-74-50-73" id="t"/><path d="M160-131c35 5 61 23 61 61C221 17 115-2 30 0v-248c76 3 177-17 177 60 0 33-19 50-47 57zm-97-11c50-1 110 9 110-42 0-47-63-36-110-37v79zm0 115c55-2 124 14 124-45 0-56-70-42-124-44v89" id="u"/><g id="e"><use transform="matrix(0.05,0,0,0.05,0,0)" xlink:href="#p"/><use transform="matrix(0.05,0,0,0.05,14,0)" xlink:href="#l"/><use transform="matrix(0.05,0,0,0.05,24,0)" xlink:href="#q"/><use transform="matrix(0.05,0,0,0.05,34,0)" xlink:href="#r"/><use transform="matrix(0.05,0,0,0.05,46,0)" xlink:href="#g"/><use transform="matrix(0.05,0,0,0.05,56,0)" xlink:href="#s"/><use transform="matrix(0.05,0,0,0.05,66,0)" xlink:href="#t"/><use transform="matrix(0.05,0,0,0.05,76,0)" xlink:href="#g"/><use transform="matrix(0.05,0,0,0.05,86,0)" xlink:href="#o"/><use transform="matrix(0.05,0,0,0.05,95,0)" xlink:href="#u"/><use transform="matrix(0.05,0,0,0.05,107,0)" xlink:href="#g"/><use transform="matrix(0.05,0,0,0.05,117,0)" xlink:href="#o"/><use transform="matrix(0.05,0,0,0.05,126,0)" xlink:href="#l"/></g></defs></g></svg>