<svg xmlns="http://www.w3.org/2000/svg" xmlns:xlink="http://www.w3.org/1999/xlink" xmlns:lucid="lucid" width="492" height="431"><g transform="translate(-2045 -827)" lucid:page-tab-id="0_0"><path d="M2141.94 940l30-35 60 35-.56 95h-98.88z" stroke="#000" stroke-width="2" fill="#99d2f2"/><path d="M2137.08 860h300v60h-300z" stroke="#000" stroke-opacity="0" stroke-width="2" fill="#fff" fill-opacity="0"/><use xlink:href="#a" transform="matrix(1,0,0,1,2142.08,865) translate(90.81481481481481 31.138888888888893)"/><path d="M2437.08 980c0 30.38-24.7 55-55.14 55-30.45 0-55.14-24.62-55.14-55s24.7-55 55.14-55c30.45 0 55.14 24.62 55.14 55z" stroke="#000" stroke-width="2" fill="#c92d39" fill-opacity=".5"/><path d="M2393.47 980c0 5.52-5.04 10-11.25 10-6.2 0-11.25-4.48-11.25-10s5.04-10 11.25-10c6.2 0 11.25 4.48 11.25 10z" stroke="#000" stroke-width="2" fill="#ffeca9"/><path d="M2110 1080h144.44v100H2110z" stroke="#000" stroke-width="2" fill="#e5e5e5"/><path d="M2437.08 1125c0 30.38-24.7 55-55.14 55-30.45 0-55.14-24.62-55.14-55s24.7-55 55.14-55c30.45 0 55.14 24.62 55.14 55z" stroke="#000" stroke-width="2" fill="#c92d39" fill-opacity=".5"/><path d="M2393.2 1125c0 5.52-5.05 10-11.26 10-6.2 0-11.25-4.48-11.25-10s5.03-10 11.24-10c6.2 0 11.25 4.48 11.25 10z" stroke="#000" stroke-width="2" fill="#ffeca9"/><path d="M2233.7 980h73.6" stroke="#c92d39" stroke-width="2" fill="none"/><path d="M2233.73 981h-1.03v-2h1.03z" fill="#c92d39"/><path d="M2322.56 980l-14.26 4.64v-9.28z" stroke="#c92d39" stroke-width="2" fill="#c92d39"/><path d="M2256.44 1131.53h51.25" stroke="#c92d39" stroke-width="2" fill="none"/><path d="M2256.47 1132.53h-1.03v-2h1.03z" fill="#c92d39"/><path d="M2322.95 1131.53l-14.27 4.63v-9.27z" stroke="#c92d39" stroke-width="2" fill="#c92d39"/><defs><path d="M135-194c52 0 70 43 70 98 0 56-19 99-73 100-30 1-46-15-58-35L72 0H24l1-261h50v104c11-23 29-37 60-37zM114-30c31 0 40-27 40-66 0-37-7-63-39-63s-41 28-41 65c0 36 8 64 40 64" id="b"/><path d="M85 4C-2 5 27-109 22-190h50c7 57-23 150 33 157 60-5 35-97 40-157h50l1 190h-47c-2-12 1-28-3-38-12 25-28 42-61 42" id="c"/><path d="M121-226c-27-7-43 5-38 36h38v33H83V0H34v-157H6v-33h28c-9-59 32-81 87-68v32" id="d"/><path d="M185-48c-13 30-37 53-82 52C43 2 14-33 14-96s30-98 90-98c62 0 83 45 84 108H66c0 31 8 55 39 56 18 0 30-7 34-22zm-45-69c5-46-57-63-70-21-2 6-4 13-4 21h74" id="e"/><path d="M135-150c-39-12-60 13-60 57V0H25l-1-190h47c2 13-1 29 3 40 6-28 27-53 61-41v41" id="f"/><path d="M67-93c0 74 22 123 53 168H70C40 30 18-18 18-93s22-123 52-168h50c-32 44-53 94-53 168" id="g"/><path d="M102-93c0 74-22 123-52 168H0C30 29 54-18 53-93c0-74-22-123-53-168h50c30 45 52 94 52 168" id="h"/><g id="a"><use transform="matrix(0.08641975308641976,0,0,0.08641975308641976,0,0)" xlink:href="#b"/><use transform="matrix(0.08641975308641976,0,0,0.08641975308641976,18.925925925925927,0)" xlink:href="#c"/><use transform="matrix(0.08641975308641976,0,0,0.08641975308641976,37.851851851851855,0)" xlink:href="#d"/><use transform="matrix(0.08641975308641976,0,0,0.08641975308641976,48.13580246913581,0)" xlink:href="#d"/><use transform="matrix(0.08641975308641976,0,0,0.08641975308641976,58.419753086419746,0)" xlink:href="#e"/><use transform="matrix(0.08641975308641976,0,0,0.08641975308641976,75.70370370370371,0)" xlink:href="#f"/><use transform="matrix(0.08641975308641976,0,0,0.08641975308641976,87.80246913580248,0)" xlink:href="#g"/><use transform="matrix(0.08641975308641976,0,0,0.08641975308641976,98.08641975308643,0)" xlink:href="#h"/></g></defs></g></svg>